<mxfile host="65bd71144e">
    <diagram id="mw894LFjRCCqBwrDU4rk" name="Page-1">
        <mxGraphModel dx="1374" dy="782" grid="1" gridSize="10" guides="1" tooltips="1" connect="1" arrows="1" fold="1" page="1" pageScale="1" pageWidth="1169" pageHeight="827" background="none" math="0" shadow="0">
            <root>
                <mxCell id="0"/>
                <mxCell id="1" parent="0"/>
                <mxCell id="3" value="CoronaHotspotRegion" style="whiteSpace=wrap;html=1;align=center;rounded=0;" parent="1" vertex="1">
                    <mxGeometry x="185" y="504" width="160" height="40" as="geometry"/>
                </mxCell>
                <mxCell id="4" value="Hospital" style="whiteSpace=wrap;html=1;align=center;rounded=0;" parent="1" vertex="1">
                    <mxGeometry x="245" y="244" width="100" height="40" as="geometry"/>
                </mxCell>
                <mxCell id="11" value="hospitalized_in" style="shape=rhombus;perimeter=rhombusPerimeter;whiteSpace=wrap;html=1;align=center;rounded=0;" parent="1" vertex="1">
                    <mxGeometry x="425" y="234" width="120" height="60" as="geometry"/>
                </mxCell>
                <mxCell id="16" value="" style="endArrow=none;html=1;rounded=0;exitX=1;exitY=0.5;exitDx=0;exitDy=0;entryX=0;entryY=0.5;entryDx=0;entryDy=0;" parent="1" source="4" target="11" edge="1">
                    <mxGeometry relative="1" as="geometry">
                        <mxPoint x="435" y="274" as="sourcePoint"/>
                        <mxPoint x="415" y="263.9999999999999" as="targetPoint"/>
                    </mxGeometry>
                </mxCell>
                <mxCell id="17" value="(0,N)" style="edgeLabel;html=1;align=center;verticalAlign=middle;resizable=0;points=[];rounded=0;" parent="16" vertex="1" connectable="0">
                    <mxGeometry x="0.206" y="2" relative="1" as="geometry">
                        <mxPoint x="-8" y="2" as="offset"/>
                    </mxGeometry>
                </mxCell>
                <mxCell id="20" value="" style="endArrow=none;html=1;rounded=0;exitX=1;exitY=0.5;exitDx=0;exitDy=0;entryX=0;entryY=0.25;entryDx=0;entryDy=0;" parent="1" source="11" target="64" edge="1">
                    <mxGeometry relative="1" as="geometry">
                        <mxPoint x="660" y="509" as="sourcePoint"/>
                        <mxPoint x="710" y="479" as="targetPoint"/>
                    </mxGeometry>
                </mxCell>
                <mxCell id="21" value="(0,1)" style="edgeLabel;html=1;align=center;verticalAlign=middle;resizable=0;points=[];rounded=0;" parent="20" vertex="1" connectable="0">
                    <mxGeometry x="0.206" y="2" relative="1" as="geometry">
                        <mxPoint x="-4" y="-1" as="offset"/>
                    </mxGeometry>
                </mxCell>
                <mxCell id="22" value="comes_from" style="shape=rhombus;perimeter=rhombusPerimeter;whiteSpace=wrap;html=1;align=center;rounded=0;" parent="1" vertex="1">
                    <mxGeometry x="425" y="494" width="120" height="60" as="geometry"/>
                </mxCell>
                <mxCell id="23" value="" style="endArrow=none;html=1;rounded=0;entryX=0;entryY=0.75;entryDx=0;entryDy=0;exitX=1;exitY=0.5;exitDx=0;exitDy=0;" parent="1" source="22" target="64" edge="1">
                    <mxGeometry relative="1" as="geometry">
                        <mxPoint x="480" y="569" as="sourcePoint"/>
                        <mxPoint x="740" y="509" as="targetPoint"/>
                        <Array as="points"/>
                    </mxGeometry>
                </mxCell>
                <mxCell id="24" value="(0,1)" style="edgeLabel;html=1;align=center;verticalAlign=middle;resizable=0;points=[];rounded=0;" parent="23" vertex="1" connectable="0">
                    <mxGeometry x="-0.3132" y="-1" relative="1" as="geometry">
                        <mxPoint x="28" y="-17" as="offset"/>
                    </mxGeometry>
                </mxCell>
                <mxCell id="25" value="" style="endArrow=none;html=1;rounded=0;entryX=0;entryY=0.5;entryDx=0;entryDy=0;exitX=1;exitY=0.5;exitDx=0;exitDy=0;" parent="1" source="3" target="22" edge="1">
                    <mxGeometry relative="1" as="geometry">
                        <mxPoint x="275" y="604" as="sourcePoint"/>
                        <mxPoint x="435" y="604" as="targetPoint"/>
                    </mxGeometry>
                </mxCell>
                <mxCell id="26" value="(1,N)" style="edgeLabel;html=1;align=center;verticalAlign=middle;resizable=0;points=[];rounded=0;" parent="25" vertex="1" connectable="0">
                    <mxGeometry x="0.2962" relative="1" as="geometry">
                        <mxPoint x="-21" y="-3" as="offset"/>
                    </mxGeometry>
                </mxCell>
                <mxCell id="28" style="edgeStyle=none;html=1;exitX=0.5;exitY=0;exitDx=0;exitDy=0;entryX=0.5;entryY=1;entryDx=0;entryDy=0;endArrow=none;endFill=0;rounded=0;" parent="1" source="27" target="4" edge="1">
                    <mxGeometry relative="1" as="geometry"/>
                </mxCell>
                <mxCell id="27" value="max_capacity" style="ellipse;whiteSpace=wrap;html=1;align=center;rounded=0;" parent="1" vertex="1">
                    <mxGeometry x="245" y="364" width="100" height="40" as="geometry"/>
                </mxCell>
                <mxCell id="39" value="" style="edgeStyle=none;html=1;endArrow=none;endFill=0;entryX=1;entryY=0.5;entryDx=0;entryDy=0;rounded=0;" parent="1" source="29" target="5" edge="1">
                    <mxGeometry relative="1" as="geometry">
                        <mxPoint x="829.76" y="453.67999999999995" as="targetPoint"/>
                    </mxGeometry>
                </mxCell>
                <mxCell id="29" value="&lt;u&gt;state_&lt;/u&gt;&lt;u&gt;issued&lt;/u&gt;&lt;u&gt;_id&lt;/u&gt;" style="ellipse;whiteSpace=wrap;html=1;align=center;rounded=0;" parent="1" vertex="1">
                    <mxGeometry x="945" y="534" width="100" height="40" as="geometry"/>
                </mxCell>
                <mxCell id="40" value="" style="edgeStyle=none;html=1;endArrow=none;endFill=0;entryX=1;entryY=0.75;entryDx=0;entryDy=0;exitX=0;exitY=0;exitDx=0;exitDy=0;rounded=0;" parent="1" source="32" target="5" edge="1">
                    <mxGeometry relative="1" as="geometry">
                        <mxPoint x="830.3599999999999" y="465.56000000000006" as="targetPoint"/>
                    </mxGeometry>
                </mxCell>
                <mxCell id="32" value="full_name" style="ellipse;whiteSpace=wrap;html=1;align=center;rounded=0;" parent="1" vertex="1">
                    <mxGeometry x="945" y="584" width="100" height="40" as="geometry"/>
                </mxCell>
                <mxCell id="41" style="edgeStyle=none;html=1;entryX=1;entryY=1;entryDx=0;entryDy=0;endArrow=none;endFill=0;exitX=0;exitY=0;exitDx=0;exitDy=0;rounded=0;" parent="1" source="33" target="5" edge="1">
                    <mxGeometry relative="1" as="geometry">
                        <mxPoint x="830" y="479" as="targetPoint"/>
                    </mxGeometry>
                </mxCell>
                <mxCell id="33" value="&lt;font style=&quot;font-size: 11px&quot;&gt;start_of_isolation&lt;/font&gt;" style="ellipse;whiteSpace=wrap;html=1;align=center;rounded=0;" parent="1" vertex="1">
                    <mxGeometry x="945" y="634" width="100" height="40" as="geometry"/>
                </mxCell>
                <mxCell id="42" style="edgeStyle=none;html=1;endArrow=none;endFill=0;exitX=0.5;exitY=0;exitDx=0;exitDy=0;entryX=0.75;entryY=1;entryDx=0;entryDy=0;rounded=0;" parent="1" source="35" target="5" edge="1">
                    <mxGeometry relative="1" as="geometry">
                        <mxPoint x="830.1199999999999" y="494.84000000000003" as="targetPoint"/>
                    </mxGeometry>
                </mxCell>
                <mxCell id="35" value="has_symptoms" style="ellipse;whiteSpace=wrap;html=1;align=center;rounded=0;" parent="1" vertex="1">
                    <mxGeometry x="835" y="634" width="100" height="40" as="geometry"/>
                </mxCell>
                <mxCell id="43" style="edgeStyle=none;html=1;endArrow=none;endFill=0;exitX=0.5;exitY=0;exitDx=0;exitDy=0;entryX=0.5;entryY=1;entryDx=0;entryDy=0;rounded=0;" parent="1" source="36" target="5" edge="1">
                    <mxGeometry relative="1" as="geometry">
                        <mxPoint x="807.1428571428555" y="509" as="targetPoint"/>
                    </mxGeometry>
                </mxCell>
                <mxCell id="36" value=" citizenship" style="ellipse;whiteSpace=wrap;html=1;align=center;rounded=0;" parent="1" vertex="1">
                    <mxGeometry x="725" y="634" width="100" height="40" as="geometry"/>
                </mxCell>
                <mxCell id="48" value="" style="edgeStyle=none;html=1;endArrow=none;endFill=0;entryX=1;entryY=0.25;entryDx=0;entryDy=0;exitX=0;exitY=0;exitDx=0;exitDy=0;rounded=0;" parent="1" source="47" target="5" edge="1">
                    <mxGeometry relative="1" as="geometry">
                        <mxPoint x="830" y="419" as="targetPoint"/>
                    </mxGeometry>
                </mxCell>
                <mxCell id="47" value="&lt;font style=&quot;font-size: 8px&quot;&gt;departure_region_code&lt;/font&gt;" style="ellipse;whiteSpace=wrap;html=1;align=center;rounded=0;" parent="1" vertex="1">
                    <mxGeometry x="945" y="484" width="100" height="40" as="geometry"/>
                </mxCell>
                <mxCell id="52" value="" style="edgeStyle=none;html=1;endArrow=none;endFill=0;rounded=0;" parent="1" source="49" target="3" edge="1">
                    <mxGeometry relative="1" as="geometry"/>
                </mxCell>
                <mxCell id="49" value="&lt;u&gt;region_code&lt;/u&gt;" style="ellipse;whiteSpace=wrap;html=1;align=center;rounded=0;" parent="1" vertex="1">
                    <mxGeometry x="145" y="624" width="100" height="40" as="geometry"/>
                </mxCell>
                <mxCell id="54" value="" style="edgeStyle=none;html=1;endArrow=none;endFill=0;exitX=0.5;exitY=0;exitDx=0;exitDy=0;rounded=0;" parent="1" source="53" target="3" edge="1">
                    <mxGeometry relative="1" as="geometry">
                        <mxPoint x="325" y="634" as="sourcePoint"/>
                    </mxGeometry>
                </mxCell>
                <mxCell id="53" value="region_name" style="ellipse;whiteSpace=wrap;html=1;align=center;rounded=0;" parent="1" vertex="1">
                    <mxGeometry x="275" y="624" width="100" height="40" as="geometry"/>
                </mxCell>
                <mxCell id="56" value="" style="edgeStyle=none;html=1;endArrow=none;endFill=0;rounded=0;" parent="1" source="55" target="4" edge="1">
                    <mxGeometry relative="1" as="geometry"/>
                </mxCell>
                <mxCell id="55" value="id" style="ellipse;whiteSpace=wrap;html=1;align=center;fontStyle=4;rounded=0;" parent="1" vertex="1">
                    <mxGeometry x="125" y="364" width="100" height="40" as="geometry"/>
                </mxCell>
                <mxCell id="58" value="" style="edgeStyle=none;html=1;endArrow=none;endFill=0;rounded=0;" parent="1" source="57" target="4" edge="1">
                    <mxGeometry relative="1" as="geometry"/>
                </mxCell>
                <mxCell id="57" value="facility_name" style="ellipse;whiteSpace=wrap;html=1;align=center;rounded=0;" parent="1" vertex="1">
                    <mxGeometry x="365" y="364" width="100" height="40" as="geometry"/>
                </mxCell>
                <mxCell id="60" value="" style="edgeStyle=none;html=1;endArrow=none;endFill=0;entryX=0.25;entryY=1;entryDx=0;entryDy=0;exitX=0.5;exitY=0;exitDx=0;exitDy=0;rounded=0;" parent="1" source="59" target="5" edge="1">
                    <mxGeometry relative="1" as="geometry">
                        <Array as="points"/>
                        <mxPoint x="800" y="509" as="targetPoint"/>
                    </mxGeometry>
                </mxCell>
                <mxCell id="59" value=" phone_number" style="ellipse;whiteSpace=wrap;html=1;align=center;rounded=0;" parent="1" vertex="1">
                    <mxGeometry x="615" y="634" width="100" height="40" as="geometry"/>
                </mxCell>
                <mxCell id="65" value="" style="edgeStyle=none;html=1;fontSize=11;endArrow=none;endFill=0;entryX=1;entryY=0;entryDx=0;entryDy=0;rounded=0;" parent="1" source="61" target="5" edge="1">
                    <mxGeometry relative="1" as="geometry"/>
                </mxCell>
                <mxCell id="61" value=" isolation_days" style="ellipse;whiteSpace=wrap;html=1;align=center;rounded=0;" parent="1" vertex="1">
                    <mxGeometry x="945" y="434" width="100" height="40" as="geometry"/>
                </mxCell>
                <mxCell id="64" value="Patient Data" style="swimlane;dashed=1;fontSize=11;gradientColor=none;startSize=30;rounded=0;" parent="1" vertex="1">
                    <mxGeometry x="665" y="274" width="180" height="240" as="geometry"/>
                </mxCell>
                <mxCell id="5" value="Patient" style="whiteSpace=wrap;html=1;align=center;rounded=0;" parent="64" vertex="1">
                    <mxGeometry x="40" y="180" width="100" height="39.33" as="geometry"/>
                </mxCell>
                <mxCell id="6" value="PatientHistory" style="whiteSpace=wrap;html=1;align=center;rounded=0;" parent="64" vertex="1">
                    <mxGeometry x="40" y="60" width="100" height="40.5" as="geometry"/>
                </mxCell>
                <mxCell id="79" style="edgeStyle=none;html=1;entryX=0.75;entryY=0;entryDx=0;entryDy=0;fontSize=11;endArrow=none;endFill=0;rounded=0;" parent="1" source="66" target="6" edge="1">
                    <mxGeometry relative="1" as="geometry"/>
                </mxCell>
                <mxCell id="66" value="&lt;u&gt;state_&lt;/u&gt;&lt;u&gt;issued&lt;/u&gt;&lt;u&gt;_id&lt;/u&gt;" style="ellipse;whiteSpace=wrap;html=1;align=center;rounded=0;" parent="1" vertex="1">
                    <mxGeometry x="835" y="154" width="100" height="40" as="geometry"/>
                </mxCell>
                <mxCell id="78" style="edgeStyle=none;html=1;entryX=1;entryY=0;entryDx=0;entryDy=0;fontSize=11;endArrow=none;endFill=0;exitX=0;exitY=1;exitDx=0;exitDy=0;rounded=0;" parent="1" source="67" target="6" edge="1">
                    <mxGeometry relative="1" as="geometry"/>
                </mxCell>
                <mxCell id="67" value="full_name" style="ellipse;whiteSpace=wrap;html=1;align=center;rounded=0;" parent="1" vertex="1">
                    <mxGeometry x="945" y="154" width="100" height="40" as="geometry"/>
                </mxCell>
                <mxCell id="77" style="edgeStyle=none;html=1;entryX=1;entryY=0.25;entryDx=0;entryDy=0;fontSize=11;endArrow=none;endFill=0;exitX=0;exitY=1;exitDx=0;exitDy=0;rounded=0;" parent="1" source="68" target="6" edge="1">
                    <mxGeometry relative="1" as="geometry"/>
                </mxCell>
                <mxCell id="68" value="&lt;font style=&quot;font-size: 11px&quot;&gt;&lt;u&gt;start_of_isolation&lt;/u&gt;&lt;/font&gt;" style="ellipse;whiteSpace=wrap;html=1;align=center;rounded=0;" parent="1" vertex="1">
                    <mxGeometry x="945" y="204" width="100" height="40" as="geometry"/>
                </mxCell>
                <mxCell id="76" style="edgeStyle=none;html=1;entryX=1;entryY=0.5;entryDx=0;entryDy=0;fontSize=11;endArrow=none;endFill=0;exitX=0;exitY=1;exitDx=0;exitDy=0;rounded=0;" parent="1" source="69" target="6" edge="1">
                    <mxGeometry relative="1" as="geometry"/>
                </mxCell>
                <mxCell id="69" value="has_symptoms" style="ellipse;whiteSpace=wrap;html=1;align=center;rounded=0;" parent="1" vertex="1">
                    <mxGeometry x="945" y="254" width="100" height="40" as="geometry"/>
                </mxCell>
                <mxCell id="75" style="edgeStyle=none;html=1;entryX=1;entryY=0.75;entryDx=0;entryDy=0;fontSize=11;endArrow=none;endFill=0;exitX=0;exitY=0.5;exitDx=0;exitDy=0;rounded=0;" parent="1" source="70" target="6" edge="1">
                    <mxGeometry relative="1" as="geometry"/>
                </mxCell>
                <mxCell id="70" value=" citizenship" style="ellipse;whiteSpace=wrap;html=1;align=center;rounded=0;" parent="1" vertex="1">
                    <mxGeometry x="945" y="304" width="100" height="40" as="geometry"/>
                </mxCell>
                <mxCell id="80" style="edgeStyle=none;html=1;entryX=0.5;entryY=0;entryDx=0;entryDy=0;fontSize=11;endArrow=none;endFill=0;rounded=0;" parent="1" source="71" target="6" edge="1">
                    <mxGeometry relative="1" as="geometry"/>
                </mxCell>
                <mxCell id="71" value="&lt;font style=&quot;font-size: 8px&quot;&gt;departure_region_code&lt;/font&gt;" style="ellipse;whiteSpace=wrap;html=1;align=center;rounded=0;" parent="1" vertex="1">
                    <mxGeometry x="725" y="154" width="100" height="40" as="geometry"/>
                </mxCell>
                <mxCell id="74" style="edgeStyle=none;html=1;entryX=1;entryY=1;entryDx=0;entryDy=0;fontSize=11;endArrow=none;endFill=0;rounded=0;" parent="1" source="72" target="6" edge="1">
                    <mxGeometry relative="1" as="geometry"/>
                </mxCell>
                <mxCell id="72" value=" phone_number" style="ellipse;whiteSpace=wrap;html=1;align=center;rounded=0;" parent="1" vertex="1">
                    <mxGeometry x="945" y="354" width="100" height="40" as="geometry"/>
                </mxCell>
                <mxCell id="81" style="edgeStyle=none;html=1;entryX=0.25;entryY=0;entryDx=0;entryDy=0;fontSize=11;endArrow=none;endFill=0;rounded=0;" parent="1" source="73" target="6" edge="1">
                    <mxGeometry relative="1" as="geometry"/>
                </mxCell>
                <mxCell id="73" value=" isolation_days" style="ellipse;whiteSpace=wrap;html=1;align=center;rounded=0;" parent="1" vertex="1">
                    <mxGeometry x="615" y="154" width="100" height="40" as="geometry"/>
                </mxCell>
            </root>
        </mxGraphModel>
    </diagram>
</mxfile>